<svg xmlns="http://www.w3.org/2000/svg" fill="#000" viewBox="0 0 512 512">
  <path d="M428.5 380H466v7.5h-37.5c-2.5 0-5 1.875-5 4.375s2.5 4.375 5 4.375h25c6.875 0 12.5 4.971 12.5 11.875S460.404 420 453.5 420H416v-7.5h37.5c2.5 0 5-1.875 5-4.375s-2.5-4.375-5-4.375h-25c-6.875 0-12.5-4.971-12.5-11.875S421.596 380 428.5 380M392 380v27.5c0 6.904-5.596 12.5-12.5 12.5h-25c-6.904 0-12.5-5.596-12.5-12.5V380h7.5v27.5c0 2.5 2.5 5 5 5h25c2.5 0 5-2.5 5-5V380zM280.5 380H318v7.5h-37.5c-2.5 0-5 2.5-5 5v3.75h35v7.5h-35V420H268v-27.5c0-6.904 5.596-12.5 12.5-12.5M244 420h-37.5c-6.904 0-12.5-5.596-12.5-12.5V380h7.5v27.5c0 2.5 2.5 5 5 5H244zM141.25 380 120 420h7.5l17.5-32.5 17.5 32.5h7.5l-21.25-40zM58.5 380H96v7.5H58.5c-2.5 0-5 2.5-5 5v15c0 2.5 2.5 5 5 5h25c2.5 0 5-2.5 5-5v-3.75H66v-7.5h30v11.25c0 6.904-5.596 12.5-12.5 12.5h-25c-6.904 0-12.5-5.596-12.5-12.5v-15c0-6.904 5.596-12.5 12.5-12.5M234.588 191.602c-3.38-12.521 27.517-28.297 16.655-61.602 8.69 4.758 14 12.771 14 26.294 0 21.535-26.31 25.542-30.655 35.308"/>
  <path d="M272.687 153.113c5.404 13.133.811 29.417-3.782 33.357.81-4.465-.541-9.981-4.178-13.76 0 12.447-5.819 21.114-17.379 31.302-8.421 7.421-16.584 12.43-23.897 18.008-4.106.3-7.232-2.193-7.482-6.99-3.072 6.57-1.272 8.533-3.621 14.524-2.597 6.624-6.506 10.65-9.414 16.778-5.584 11.767-7.292 19.695-6.874 32.804.599 18.774 9.745 34.024 21.804 45.252 13.794 12.843 25.622 14.597 34.07 16.1 3.628.645 5.378 4.389 6.035 7.512 1.008-3.319 2.21-6.964 5.793-7.512 14.724-2.254 52.138-14.524 52.138-57.846 0-15.795-11.103-31.302-14-34.557-5.571-6.261-10.261-17.573-8.07-23.539s3.174-14.963-3.04-19.953c2.161 4.727 2.178 9.196-.339 13.442-2.363 3.985-4.241 10.984-3.448 16.778.544 3.974 3.793 10.016 3.793 10.016-12.068-5.566-31.53-3.619-41.758 6.511 26.621-9.435 48.683 7.477 50.127 31.302 1.093 18.03-10.787 33.476-19.947 34.557 2.347-2.717 2.892-8.984 1.69-12.27 0 5.008-6.845 19.002-25.711 19.002-18.867 0-33.01-13.227-35.815-23.259 6.794 9.451 18.708 13.897 30.746 11.903 16.449-2.725 28.6-15.409 28.6-29.432 0-10.934-8.536-19.886-19.07-19.533-9.168.308-17.626 6.023-18.103 15.526-.42 8.36 5.448 14.524 13.517 14.524 5.793 0 8.931-5.509 8.931-8.013 0 0-1.689 2.504-6.034 2.504-3.602 0-7.483-3.255-7.483-7.012 0-4.158 2.8-7.056 6.759-7.763 5.716-1.019 10.83 2.755 11.345 6.762 1.448 11.268-8.207 18.53-19.311 18.53-12.531 0-22.484-8.188-23.115-21.285-.367-7.61 3.294-17.371 10.357-23.637-9.765 2.064-15.979 15.459-15.979 28.896-14.732-39.01 36.703-55.987 39.987-66.23.811 4.34-.6 8.94-5.133 13.142 7.565-.797 18.168-7.784 24.316-17.87 4.323-7.091 6.214-14.708 6.214-25.214 0-13.933-6.214-30.176-13.239-33.357"/>
</svg>