<svg xmlns="http://www.w3.org/2000/svg" fill="none" viewBox="0 0 512 512">
  <g clip-path="url(#a)" filter="url(#b)">
    <path fill="#148ffe" d="M216.803 169.031c-6.2-22.974 50.491-51.921 30.56-113.031 15.945 8.73 25.688 23.433 25.688 48.245 0 39.515-48.276 46.867-56.248 64.786"/>
    <path fill="#148ffe" d="M286.711 98.41c9.915 24.096 1.487 53.976-6.941 61.204 1.487-8.192-.991-18.313-7.665-25.247 0 22.838-10.677 38.741-31.888 57.434-15.451 13.617-30.43 22.807-43.847 33.044-7.534.55-13.271-4.026-13.73-12.827-5.636 12.056-2.334 15.657-6.644 26.65-4.764 12.153-11.938 19.542-17.273 30.785-10.246 21.592-13.38 36.138-12.613 60.191 1.1 34.448 17.881 62.429 40.007 83.031 25.311 23.566 47.013 26.784 62.515 29.541 6.657 1.184 9.866 8.054 11.072 13.784 1.85-6.09 4.056-12.778 10.63-13.784C297.351 438.08 366 415.566 366 336.077c0-28.982-20.373-57.435-25.688-63.408-10.221-11.487-18.827-32.244-14.807-43.191 4.02-10.946 5.823-27.454-5.579-36.611 3.966 8.675 3.997 16.875-.622 24.665-4.336 7.313-7.781 20.155-6.326 30.785.998 7.292 6.96 18.379 6.96 18.379-22.144-10.214-57.853-6.641-76.621 11.946 48.847-17.312 89.327 13.719 91.977 57.435 2.005 33.082-19.794 61.423-36.601 63.407C303 394.5 304 383 301.794 376.97c0 9.19-12.559 34.866-47.176 34.866s-60.569-24.27-65.715-42.677c12.467 17.341 34.326 25.5 56.414 21.841 30.183-5 52.477-28.274 52.477-54.004 0-20.062-15.662-36.487-34.99-35.839-16.822.563-32.342 11.05-33.217 28.487-.77 15.34 9.996 26.65 24.802 26.65 10.63 0 16.388-10.109 16.388-14.704 0 0-3.1 4.595-11.073 4.595-6.609 0-13.73-5.973-13.73-12.865 0-7.63 5.138-12.948 12.402-14.244 10.488-1.871 19.871 5.054 20.816 12.406 2.657 20.676-15.059 34.001-35.432 34.001-22.993 0-41.255-15.025-42.413-39.055-.673-13.964 6.044-31.874 19.004-43.371-17.917 3.786-29.319 28.365-29.319 53.02C164 264.5 258.376 233.349 264.402 214.554c1.487 7.963-1.102 16.403-9.419 24.114 13.881-1.463 33.336-14.283 44.617-32.788 7.932-13.013 11.402-26.988 11.402-46.266 0-25.565-11.402-55.369-24.291-61.204"/>
    <path stroke="#c9e3ff" stroke-linejoin="round" stroke-width="4" d="M216.803 169.031c-6.2-22.974 50.491-51.921 30.56-113.031 15.945 8.73 25.688 23.433 25.688 48.245 0 39.515-48.276 46.867-56.248 64.786Z"/>
    <path stroke="#c9e3ff" stroke-linejoin="round" stroke-width="4" d="M286.711 98.41c9.915 24.096 1.487 53.976-6.941 61.204 1.487-8.192-.991-18.313-7.665-25.247 0 22.838-10.677 38.741-31.888 57.434-15.451 13.617-30.43 22.807-43.847 33.044-7.534.55-13.271-4.026-13.73-12.827-5.636 12.056-2.334 15.657-6.644 26.65-4.764 12.153-11.938 19.542-17.273 30.785-10.246 21.592-13.38 36.138-12.613 60.191 1.1 34.448 17.881 62.429 40.007 83.031 25.311 23.566 47.013 26.784 62.515 29.541 6.657 1.184 9.866 8.054 11.072 13.784 1.85-6.09 4.056-12.778 10.63-13.784C297.351 438.08 366 415.566 366 336.077c0-28.982-20.373-57.435-25.688-63.408-10.221-11.487-18.827-32.244-14.807-43.191 4.02-10.946 5.823-27.454-5.579-36.611 3.966 8.675 3.997 16.875-.622 24.665-4.336 7.313-7.781 20.155-6.326 30.785.998 7.292 6.96 18.379 6.96 18.379-22.144-10.214-57.853-6.641-76.621 11.946 48.847-17.312 89.327 13.719 91.977 57.435 2.005 33.082-19.794 61.423-36.601 63.407C303 394.5 304 383 301.794 376.97c0 9.19-12.559 34.866-47.176 34.866s-60.569-24.27-65.715-42.677c12.467 17.341 34.326 25.5 56.414 21.841 30.183-5 52.477-28.274 52.477-54.004 0-20.062-15.662-36.487-34.99-35.839-16.822.563-32.342 11.05-33.217 28.487-.77 15.34 9.996 26.65 24.802 26.65 10.63 0 16.388-10.109 16.388-14.704 0 0-3.1 4.595-11.073 4.595-6.609 0-13.73-5.973-13.73-12.865 0-7.63 5.138-12.948 12.402-14.244 10.488-1.871 19.871 5.054 20.816 12.406 2.657 20.676-15.059 34.001-35.432 34.001-22.993 0-41.255-15.025-42.413-39.055-.673-13.964 6.044-31.874 19.004-43.371-17.917 3.786-29.319 28.365-29.319 53.02C164 264.5 258.376 233.349 264.402 214.554c1.487 7.963-1.102 16.403-9.419 24.114 13.881-1.463 33.336-14.283 44.617-32.788 7.932-13.013 11.402-26.988 11.402-46.266 0-25.565-11.402-55.369-24.291-61.204Z"/>
  </g>
  <defs>
    <clipPath id="a">
      <path fill="#fff" d="M0 0h512v512H0z"/>
    </clipPath>
    <filter id="b" width="384" height="564" x="64" y="-26" color-interpolation-filters="sRGB" filterUnits="userSpaceOnUse">
      <feFlood flood-opacity="0" result="BackgroundImageFix"/>
      <feColorMatrix in="SourceAlpha" result="hardAlpha" values="0 0 0 0 0 0 0 0 0 0 0 0 0 0 0 0 0 0 127 0"/>
      <feOffset/>
      <feGaussianBlur stdDeviation="40"/>
      <feComposite in2="hardAlpha" operator="out"/>
      <feColorMatrix values="0 0 0 0 0.0784314 0 0 0 0 0.560784 0 0 0 0 0.996078 0 0 0 1 0"/>
      <feBlend in2="BackgroundImageFix" result="effect1_dropShadow_3930_61"/>
      <feBlend in="SourceGraphic" in2="effect1_dropShadow_3930_61" result="shape"/>
      <feColorMatrix in="SourceAlpha" result="hardAlpha" values="0 0 0 0 0 0 0 0 0 0 0 0 0 0 0 0 0 0 127 0"/>
      <feOffset/>
      <feGaussianBlur stdDeviation="16"/>
      <feComposite in2="hardAlpha" k2="-1" k3="1" operator="arithmetic"/>
      <feColorMatrix values="0 0 0 0 1 0 0 0 0 1 0 0 0 0 1 0 0 0 1 0"/>
      <feBlend in2="shape" result="effect2_innerShadow_3930_61"/>
    </filter>
  </defs>
</svg>